<?xml version="1.0" encoding="UTF-8" standalone="no"?>
<svg
   xmlns:dc="http://purl.org/dc/elements/1.1/"
   xmlns:cc="http://creativecommons.org/ns#"
   xmlns:rdf="http://www.w3.org/1999/02/22-rdf-syntax-ns#"
   xmlns:svg="http://www.w3.org/2000/svg"
   xmlns="http://www.w3.org/2000/svg"
   xmlns:sodipodi="http://sodipodi.sourceforge.net/DTD/sodipodi-0.dtd"
   xmlns:inkscape="http://www.inkscape.org/namespaces/inkscape"
   width="2.526in"
   height="2.526in"
   viewBox="0 0 64.160399 64.160402"
   version="1.1"
   id="svg8"
   inkscape:version="1.0 (4035a4fb49, 2020-05-01)"
   sodipodi:docname="logo.svg">
  <style
     id="style831"></style>
  <defs
     id="defs2" />
  <sodipodi:namedview
     id="base"
     pagecolor="#ffffff"
     bordercolor="#666666"
     borderopacity="1.0"
     inkscape:pageopacity="0.0"
     inkscape:pageshadow="2"
     inkscape:zoom="0.23882207"
     inkscape:cx="796.22124"
     inkscape:cy="40.936188"
     inkscape:document-units="mm"
     inkscape:current-layer="g854"
     inkscape:document-rotation="0"
     showgrid="false"
     units="in"
     inkscape:window-width="1366"
     inkscape:window-height="706"
     inkscape:window-x="-8"
     inkscape:window-y="-8"
     inkscape:window-maximized="1" />
  <metadata
     id="metadata5">
    <rdf:RDF>
      <cc:Work
         rdf:about="">
        <dc:format>image/svg+xml</dc:format>
        <dc:type
           rdf:resource="http://purl.org/dc/dcmitype/StillImage" />
        <dc:title></dc:title>
      </cc:Work>
    </rdf:RDF>
  </metadata>
  <g
     inkscape:label="leaf"
     inkscape:groupmode="layer"
     id="layer1" />
  <g
     inkscape:groupmode="layer"
     id="layer2"
     inkscape:label="book"
     style="display:inline">
    <g
       id="g854">
      <g
         transform="translate(-88.130762)"
         id="g860">
        <path
           id="path853"
           d="m 116.71497,17.165858 c -0.58208,-0.19524 -5.64224,-1.55308 -11.2448,-3.01743 -5.602553,-1.46435 -10.543653,-2.76194 -10.980213,-2.88353 -0.78425,-0.21843 -0.79467,-0.24539 -0.87102,-2.25335 -0.0844,-2.21951 -0.012,-2.30677 1.44911,-1.74683 0.94346,0.36155 9.382993,2.67621 11.917143,3.26843 2.4082,0.56279 4.79839,1.52887 6.54177,2.6441 1.40967,0.90175 4.37864,3.70758 4.37864,4.13804 0,0.13603 -0.0298,0.23793 -0.0661,0.22644 -0.0364,-0.0115 -0.5424,-0.18063 -1.12448,-0.37587 z m 5.95313,0.1429 c 0,-0.31382 2.70042,-2.93331 3.80468,-3.69065 2.38085,-1.63288 4.32489,-2.35424 10.35054,-3.84071 3.34698,-0.82567 7.00816,-1.78337 8.13594,-2.12823 l 2.05053,-0.62702 v 2.08503 2.08504 l -1.12448,0.28966 c -0.61847,0.15932 -1.48167,0.39594 -1.91823,0.52583 -1.10259,0.32804 -12.1136,3.15993 -13.89064,3.57248 -0.80036,0.18581 -2.79466,0.68919 -4.43177,1.11863 -1.63712,0.42943 -2.97657,0.7039 -2.97657,0.60994 z"
           style="fill:#000000;fill-opacity:1;stroke-width:0.264583"
           sodipodi:nodetypes="ssssssssssssssscccsssss" />
        <path
           sodipodi:nodetypes="ssssssssssssssssscccscsssscssscccssssssccssssccsscsssssssssssscssssscsssssssscccssscs"
           style="fill:#6699ff;fill-opacity:1;stroke-width:0.264583"
           d="m 111.68789,58.544548 c -4.07459,-1.156351 -9.55147,-2.697001 -12.170843,-3.423661 -6.0385,-1.67518 -6.87468,-1.98823 -7.38307,-2.764139 -0.31672,-0.483381 -0.82078,-5.021651 -2.13635,-19.234751 -0.94701,-10.23115 -1.77109,-18.89848 -1.83131,-19.26074 -0.14965,-0.90027 0.27111,-1.59031 0.9697,-1.59031 0.31932,0 7.27821,1.66687 15.464213,3.70416 8.25065,2.05338 15.423,3.70417 16.09389,3.70417 0.66563,0 5.6981,-1.14459 11.18326,-2.54352 5.48516,-1.39894 10.38975,-2.63448 10.89907,-2.74563 0.50932,-0.11115 2.23573,-0.56368 3.83646,-1.00561 4.18376,-1.15505 5.31141,-1.290519 5.63591,-0.677069 0.17949,0.33933 -0.28977,6.393629 -1.52936,19.731538 -1.89279,20.366302 -1.8763,20.260842 -3.26065,20.848772 -0.31972,0.13579 -6.14134,1.85677 -12.93694,3.82441 -9.86737,2.85706 -12.66475,3.573229 -13.89064,3.55618 -1.07036,-0.0149 -3.7775,-0.657749 -8.94334,-2.1238 z m 24.8047,-12.261321 1.52135,-0.424979 7.9e-4,-2.17542 c 5.3e-4,-1.196491 0.0782,-4.04019 0.17276,-6.319351 l 0.17186,-4.14392 2.53924,-0.57948 c 1.39658,-0.318719 2.63102,-0.665048 2.74319,-0.76963 0.11218,-0.104579 0.27823,-0.98538 0.36899,-1.95733 0.1942,-2.07956 0.26704,-2.04761 -2.82191,-1.23801 -1.09142,0.28606 -2.13322,0.52214 -2.31512,0.52463 -0.24637,0.003 -0.33064,-0.80443 -0.33064,-3.17046 0,-1.74625 -0.0893,-3.17454 -0.19844,-3.17397 -0.10914,5.56e-4 -0.97233,0.21958 -1.91822,0.48669 l -1.71979,0.48566 -0.0741,3.19544 -0.0741,3.195429 -2.80374,0.672981 c -1.54205,0.370141 -2.8389,0.708141 -2.88187,0.75112 -0.14956,0.149551 -0.20652,3.64803 -0.0617,3.7928 0.12088,0.12088 3.17981,-0.55095 5.07022,-1.11356 0.48111,-0.14319 0.49107,0.0634 0.30171,6.25774 -0.18855,6.16776 -0.17755,6.400681 0.2962,6.267212 0.27063,-0.0762 1.17665,-0.329862 2.0134,-0.563592 z m -29.59846,-0.998829 c 2.03907,-0.33057 3.59141,-1.22048 4.34057,-2.488311 0.51213,-0.86669 0.59319,-1.329121 0.52733,-3.008479 -0.0661,-1.68643 -0.23443,-2.302182 -1.12089,-4.101041 l -1.04307,-2.11667 -0.14969,1.5875 c -0.0823,0.873131 -0.29836,1.825631 -0.48008,2.11667 -0.29311,0.469439 -0.30759,0.439581 -0.12832,-0.264578 0.11114,-0.436571 0.19689,-1.627191 0.19054,-2.645842 -0.009,-1.453369 -0.17309,-2.207249 -0.76202,-3.50189 -0.78697,-1.73001 -1.74446,-2.92198 -1.35076,-1.68154 0.34746,1.094731 0.21934,3.071219 -0.26013,4.013059 -0.42535,0.835541 -2.77494,3.358121 -2.77494,2.979251 0,-0.0916 0.4223,-0.802831 0.93845,-1.580439 1.51211,-2.278091 1.79133,-3.16603 1.62451,-5.166101 -0.14286,-1.71282 -1.56808,-5.77796 -2.02572,-5.77796 -0.11392,0 -0.26072,0.64625 -0.32622,1.43612 -0.14607,1.76137 -0.97915,2.95499 -2.93718,4.20833 -2.767783,1.77166 -3.757863,3.537629 -3.576883,6.379929 0.14009,2.200132 1.34057,4.626041 3.182343,6.430881 0.7705,0.755041 1.93669,1.89449 2.59153,2.532102 0.69162,0.673409 1.35696,1.105228 1.5875,1.030298 0.21828,-0.0709 1.09719,-0.24252 1.95313,-0.381289 z m 9.66504,-32.249711 c -2.50069,-2.51168 -4.13109,-3.2597497 -10.91848,-5.0096798 -2.16179,-0.5573599 -3.97627,-1.0591199 -4.03218,-1.1150298 -0.0559,-0.0559 -0.20372,-0.8478901 -0.32845,-1.7599401 l -0.22678,-1.65828 1.12472,0.16867 c 2.79229,0.41873 8.60556,2.05749 10.34191,2.9153901 2.46225,1.2165398 4.60514,3.4649996 5.24693,5.5054096 0.7693,2.44582 0.49431,2.66292 -1.20767,0.95346 z m 5.93327,0.44398 c 0.23618,-1.72312 0.82895,-2.86348 2.35832,-4.5368396 1.76099,-1.9268001 4.13876,-3.0646101 8.79756,-4.2097801 2.03729,-0.5007799 4.18041,-0.98305 4.7625,-1.07172 l 1.05833,-0.1612 -0.13229,1.78669 -0.13229,1.7867 -4.49792,1.1152499 c -2.47385,0.6133902 -5.10511,1.3480802 -5.84724,1.6326602 -1.83588,0.7039696 -4.05713,2.2175996 -5.41314,3.6886896 l -1.12534,1.22085 z"
           id="path855" />
      </g>
    </g>
  </g>
</svg>
