<?xml version="1.0" encoding="UTF-8" standalone="no"?>
<svg
   xmlns:dc="http://purl.org/dc/elements/1.1/"
   xmlns:cc="http://creativecommons.org/ns#"
   xmlns:rdf="http://www.w3.org/1999/02/22-rdf-syntax-ns#"
   xmlns:svg="http://www.w3.org/2000/svg"
   xmlns="http://www.w3.org/2000/svg"
   xmlns:sodipodi="http://sodipodi.sourceforge.net/DTD/sodipodi-0.dtd"
   xmlns:inkscape="http://www.inkscape.org/namespaces/inkscape"
   sodipodi:docname="logo.svg"
   inkscape:version="1.0 (4035a4fb49, 2020-05-01)"
   id="svg8"
   version="1.1"
   viewBox="0 0 64.160402 64.414402"
   height="2.536in"
   width="2.526in">
  <defs
     id="defs2" />
  <sodipodi:namedview
     inkscape:window-maximized="1"
     inkscape:window-y="-8"
     inkscape:window-x="-8"
     inkscape:window-height="706"
     inkscape:window-width="1366"
     units="in"
     showgrid="false"
     inkscape:document-rotation="0"
     inkscape:current-layer="layer1"
     inkscape:document-units="mm"
     inkscape:cy="121.728"
     inkscape:cx="121.248"
     inkscape:zoom="2.3877656"
     inkscape:pageshadow="2"
     inkscape:pageopacity="0.0"
     borderopacity="1.0"
     bordercolor="#666666"
     pagecolor="#ffffff"
     id="base" />
  <metadata
     id="metadata5">
    <rdf:RDF>
      <cc:Work
         rdf:about="">
        <dc:format>image/svg+xml</dc:format>
        <dc:type
           rdf:resource="http://purl.org/dc/dcmitype/StillImage" />
        <dc:title></dc:title>
      </cc:Work>
    </rdf:RDF>
  </metadata>
  <g
     id="layer1"
     inkscape:groupmode="layer"
     inkscape:label="Layer 1">
    <path
       id="path847"
       d="m 23.557133,58.671548 c -4.07458,-1.15635 -9.551463,-2.697 -12.170833,-3.42366 -6.0384995,-1.67518 -6.8746795,-1.98823 -7.3830695,-2.76414 -0.31672,-0.48338 -0.82078,-5.02165 -2.13635,-19.23475 -0.94701004,-10.23115 -1.77109004,-18.89848 -1.83131004,-19.26074 -0.14965,-0.90027 0.27111,-1.59031 0.96970004,-1.59031 0.31932,0 7.27821,1.66687 15.4642095,3.70416 8.250643,2.05338 15.422993,3.70417 16.093883,3.70417 0.66563,0 5.69809,-1.14459 11.18325,-2.54352 5.48516,-1.39894 10.38974,-2.63448 10.89906,-2.74563 0.50932,-0.11115 2.23573,-0.56368 3.83646,-1.00561 4.18376,-1.15505 5.31141,-1.29052 5.63591,-0.67707 0.17949,0.33933 -0.28977,6.39363 -1.52936,19.73154 -1.89279,20.3663 -1.8763,20.26084 -3.26065,20.84877 -0.31972,0.13579 -6.14134,1.85677 -12.93693,3.82441 -9.86737,2.85706 -12.66474,3.57323 -13.89063,3.55618 -1.07036,-0.0149 -3.7775,-0.65775 -8.94334,-2.1238 z m 24.80469,-12.26132 1.52135,-0.42498 8e-4,-2.17542 c 5.2e-4,-1.19649 0.0782,-4.04019 0.17275,-6.31935 l 0.17187,-4.14392 2.53923,-0.57948 c 1.39657,-0.31872 2.63101,-0.66505 2.74319,-0.76963 0.11218,-0.10458 0.27823,-0.98538 0.36899,-1.95733 0.19419,-2.07956 0.26703,-2.04761 -2.82192,-1.23801 -1.0914,0.28606 -2.1332,0.52214 -2.3151,0.52463 -0.24637,0.003 -0.33064,-0.80443 -0.33064,-3.17046 0,-1.74625 -0.0893,-3.17454 -0.19844,-3.17397 -0.10914,5.6e-4 -0.97234,0.21958 -1.91823,0.48669 l -1.71979,0.48566 -0.0741,3.19544 -0.0741,3.19543 -2.80374,0.67298 c -1.54205,0.37014 -2.83889,0.70814 -2.88187,0.75112 -0.14956,0.14955 -0.20652,3.64803 -0.0617,3.7928 0.12088,0.12088 3.17981,-0.55095 5.07022,-1.11356 0.48111,-0.14319 0.49107,0.0634 0.30171,6.25774 -0.18855,6.16776 -0.17755,6.40068 0.2962,6.26721 0.27063,-0.0762 1.17665,-0.32986 2.0134,-0.56359 z M 18.76338,45.411398 c 2.039063,-0.33057 3.591403,-1.22048 4.340563,-2.48831 0.51213,-0.86669 0.59319,-1.32912 0.52733,-3.00848 -0.0661,-1.68643 -0.23443,-2.30218 -1.12089,-4.10104 l -1.04307,-2.11667 -0.14969,1.5875 c -0.0823,0.87313 -0.29836,1.82563 -0.48008,2.11667 -0.2931,0.46944 -0.30758,0.43958 -0.12832,-0.26458 0.11114,-0.43657 0.19689,-1.62719 0.19054,-2.64584 -0.009,-1.45337 -0.17309,-2.20725 -0.76201,-3.50189 -0.78697,-1.73001 -1.744463,-2.92198 -1.350763,-1.68154 0.34746,1.09473 0.21934,3.07122 -0.26013,4.01306 -0.42535,0.83554 -2.77494,3.35812 -2.77494,2.97925 0,-0.0916 0.4223,-0.80283 0.93845,-1.58044 1.51211,-2.27809 1.79133,-3.16603 1.62451,-5.1661 -0.14286,-1.71282 -1.56808,-5.77796 -2.02572,-5.77796 -0.11392,0 -0.26072,0.64625 -0.32622,1.43612 -0.14607,1.76137 -0.97915,2.95499 -2.93718,4.20833 -2.76778,1.77166 -3.7578595,3.53763 -3.5768795,6.37993 0.14009,2.20013 1.3405695,4.62604 3.1823395,6.43088 0.7705,0.75504 1.93669,1.89449 2.59153,2.5321 0.69162,0.67341 1.35696,1.10523 1.5875,1.0303 0.21828,-0.0709 1.09719,-0.24252 1.95313,-0.38129 z m 9.820833,-28.11854 c -0.58208,-0.19524 -5.64224,-1.55308 -11.244793,-3.01743 -5.60255,-1.46435 -10.5436495,-2.76194 -10.9802095,-2.88353 -0.78425,-0.21843 -0.79467,-0.24539 -0.87102,-2.2533504 -0.0844,-2.21951 -0.012,-2.30677 1.44911,-1.74683 0.94346,0.36155 9.3829895,2.6762104 11.9171395,3.2684304 2.408193,0.56279 4.798383,1.52887 6.541763,2.6441 1.40967,0.90175 4.37864,3.70758 4.37864,4.13804 0,0.13603 -0.0298,0.23793 -0.0661,0.22644 -0.0364,-0.0115 -0.5424,-0.18063 -1.12448,-0.37587 z m 5.95313,0.1429 c 0,-0.31382 2.70041,-2.93331 3.80467,-3.69065 2.38085,-1.63288 4.32489,-2.35424 10.35054,-3.8407104 3.34698,-0.82567 7.00815,-1.78337 8.13593,-2.12823 l 2.05053,-0.62702 v 2.08503 2.0850404 l -1.12448,0.28966 c -0.61847,0.15932 -1.48167,0.39594 -1.91823,0.52583 -1.10259,0.32804 -12.11359,3.15993 -13.89063,3.57248 -0.80036,0.18581 -2.79466,0.68919 -4.43177,1.11863 -1.63711,0.42943 -2.97656,0.7039 -2.97656,0.60994 z m -6.10893,-4.27407 c -2.50069,-2.51168 -4.13109,-3.2597504 -10.918473,-5.0096804 -2.16179,-0.55736 -3.97627,-1.05912 -4.03218,-1.11503 -0.0559,-0.0559 -0.20372,-0.84789 -0.32845,-1.75994 l -0.22678,-1.65828 1.12472,0.16867 c 2.79229,0.41873 8.605553,2.05749 10.341903,2.91539 2.46225,1.21654 4.60514,3.4650004 5.24693,5.5054104 0.7693,2.44582 0.49431,2.66292 -1.20767,0.95346 z m 5.93327,0.44398 c 0.23618,-1.72312 0.82895,-2.86348 2.35831,-4.5368404 1.76099,-1.9268 4.13876,-3.06461 8.79756,-4.20978 2.03729,-0.50078 4.18041,-0.98305 4.7625,-1.07172 l 1.05833,-0.1612 -0.13229,1.78669 -0.13229,1.7867 -4.49792,1.11525 c -2.47385,0.61339 -5.10511,1.34808 -5.84724,1.63266 -1.83588,0.7039704 -4.05713,2.2176004 -5.41313,3.6886904 l -1.12534,1.22085 z"
       style="fill:#000000;stroke-width:0.264583" />
  </g>
</svg>
